<mxfile host="app.diagrams.net" agent="Mozilla/5.0 (Macintosh; Intel Mac OS X 10.15; rv:142.0) Gecko/20100101 Firefox/142.0" version="28.1.2">
  <diagram name="Page-1" id="6BqkZKdSN_dB8ycIT_rv">
    <mxGraphModel dx="1426" dy="803" grid="1" gridSize="10" guides="1" tooltips="1" connect="1" arrows="1" fold="1" page="1" pageScale="1" pageWidth="850" pageHeight="1100" math="0" shadow="0">
      <root>
        <mxCell id="0" />
        <mxCell id="1" parent="0" />
        <mxCell id="bLBZejW5cXjo03_WTShi-3" value="" style="group" parent="1" vertex="1" connectable="0">
          <mxGeometry width="1280" height="720" as="geometry" />
        </mxCell>
        <mxCell id="s6wWzOT9_44qvJQJRMYR-1" value="" style="rounded=0;whiteSpace=wrap;html=1;" parent="bLBZejW5cXjo03_WTShi-3" vertex="1">
          <mxGeometry width="1280" height="720" as="geometry" />
        </mxCell>
        <mxCell id="bLBZejW5cXjo03_WTShi-1" value="" style="rounded=0;whiteSpace=wrap;html=1;fillColor=#f5f5f5;fontColor=#333333;strokeColor=#666666;" parent="bLBZejW5cXjo03_WTShi-3" vertex="1">
          <mxGeometry width="1280" height="360" as="geometry" />
        </mxCell>
        <mxCell id="bLBZejW5cXjo03_WTShi-2" value="" style="rounded=0;whiteSpace=wrap;html=1;fillColor=#f5f5f5;fontColor=#333333;strokeColor=#666666;" parent="bLBZejW5cXjo03_WTShi-3" vertex="1">
          <mxGeometry y="360" width="1280" height="360" as="geometry" />
        </mxCell>
        <mxCell id="RczrMToJBV5IoiJJ6a8c-1" value="&lt;div&gt;&lt;font style=&quot;font-size: 36px;&quot;&gt;Bonus!&lt;/font&gt;&lt;/div&gt;&lt;div&gt;&lt;font style=&quot;font-size: 36px;&quot;&gt;3 Armed Traps Avoided x 200 = 600 points&lt;/font&gt;&lt;/div&gt;" style="rounded=0;whiteSpace=wrap;html=1;fillColor=#0050ef;fontColor=#ffffff;strokeColor=#001DBC;" parent="bLBZejW5cXjo03_WTShi-3" vertex="1">
          <mxGeometry y="120" width="1280" height="120" as="geometry" />
        </mxCell>
        <mxCell id="s6wWzOT9_44qvJQJRMYR-2" value="&lt;div&gt;&lt;font style=&quot;font-size: 36px;&quot;&gt;High Score: 8000&lt;/font&gt;&lt;/div&gt;&lt;div&gt;&lt;font style=&quot;font-size: 36px;&quot;&gt;Most Rooms Explored: 8&lt;/font&gt;&lt;/div&gt;" style="rounded=0;whiteSpace=wrap;html=1;fillColor=#60a917;fontColor=#ffffff;strokeColor=#2D7600;" parent="bLBZejW5cXjo03_WTShi-3" vertex="1">
          <mxGeometry x="640" width="640" height="120" as="geometry" />
        </mxCell>
        <mxCell id="M2lV_mPhPiDbDLDMDAgM-1" value="&lt;font style=&quot;font-size: 36px;&quot;&gt;Cave Room Bounds&lt;/font&gt;" style="rounded=0;whiteSpace=wrap;html=1;fillColor=#e3c800;fontColor=#000000;strokeColor=#B09500;glass=0;opacity=50;" vertex="1" parent="bLBZejW5cXjo03_WTShi-3">
          <mxGeometry y="120" width="1280" height="480" as="geometry" />
        </mxCell>
        <mxCell id="s6wWzOT9_44qvJQJRMYR-3" value="" style="rounded=0;whiteSpace=wrap;html=1;fillColor=#e51400;fontColor=#ffffff;strokeColor=#B20000;" parent="1" vertex="1">
          <mxGeometry y="600" width="1280" height="120" as="geometry" />
        </mxCell>
        <mxCell id="s6wWzOT9_44qvJQJRMYR-10" value="&lt;div&gt;&lt;font style=&quot;font-size: 36px;&quot;&gt;Current Score: 500&lt;/font&gt;&lt;/div&gt;&lt;div&gt;&lt;font style=&quot;font-size: 36px;&quot;&gt;Rooms Explored: 3&lt;/font&gt;&lt;/div&gt;" style="rounded=0;whiteSpace=wrap;html=1;fillColor=#fa6800;fontColor=#000000;strokeColor=#C73500;" parent="1" vertex="1">
          <mxGeometry width="640" height="120" as="geometry" />
        </mxCell>
      </root>
    </mxGraphModel>
  </diagram>
</mxfile>
